<mxfile host="app.diagrams.net" modified="2024-05-08T17:00:01.382Z" agent="Mozilla/5.0 (Macintosh; Intel Mac OS X 10_15_7) AppleWebKit/537.36 (KHTML, like Gecko) Chrome/124.0.0.0 Safari/537.36" version="24.3.0" etag="BUtlM8P7z9Hq7LUhd7_d" type="github">
  <diagram name="PÃ¡gina-1" id="2cqGrc_LTPpBbQ39t-mg">
    <mxGraphModel>
      <root>
        <mxCell id="0" />
        <mxCell id="1" parent="0" />
      </root>
    </mxGraphModel>
  </diagram>
</mxfile>
